<?xml version="1.0" encoding="iso-8859-1"?>
<!-- Generator: Adobe Illustrator 16.0.0, SVG Export Plug-In . SVG Version: 6.00 Build 0)  -->
<!DOCTYPE svg PUBLIC "-//W3C//DTD SVG 1.1//EN" "http://www.w3.org/Graphics/SVG/1.1/DTD/svg11.dtd">
<svg version="1.1" fill="#ff0000" id="Capa_1" xmlns="http://www.w3.org/2000/svg" xmlns:xlink="http://www.w3.org/1999/xlink" x="0px" y="0px"
	 width="405.272px" height="405.272px" viewBox="0 0 35 46" style="enable-background:new 0 0 405.272 405.272;"
	 xml:space="preserve">
<g>
	<path d="M34.0100234,1 C16.6242434,2.98840527 7.21988603,4.01646794 5.79695148,4.08418802 C3.75126304,4.28472303 1.00586332,6.25951457 1.00586332,10.3051192 C1.00586332,13.002189 1.00586332,22.0757609 1.00586332,37.5258348 C0.949118982,38.4163211 1.30424713,39.162947 2.07124777,39.7657128 C2.88071146,40.4580699 8.00169748,42.7876344 14.1646466,45.2211667 C21.0663671,43.7580483 32.5338169,39.7657128 32.5338169,39.7657128 C32.5338169,39.7657128 33.9877953,39.5099349 34.0099313,37.5258348 C34.0099313,34.3470094 34.009962,22.1717312 34.0100234,1 Z" opacity=".33" ></path>

	<path d="M33.0100234,0 C15.6242434,1.98840527 6.21988603,3.01646794 4.79695148,3.08418802 C2.75126304,3.28472303 0.00586331918,5.25951457 0.00586331918,9.30511923 C0.00586331918,12.002189 0.00586331918,21.0757609 0.00586331918,36.5258348 C-0.0508810181,37.4163211 0.304247133,38.162947 1.07124777,38.7657128 C1.88071146,39.4580699 7.00169748,41.7876344 13.1646466,44.2211667 C20.0663671,42.7580483 31.5338169,38.7657128 31.5338169,38.7657128 C31.5338169,38.7657128 32.9877953,38.5099349 33.0099313,36.5258348 C33.0099313,33.3470094 33.009962,21.1717312 33.0100234,0 Z" ></path>
</g>
<g>
</g>
<g>
</g>
<g>
</g>
<g>
</g>
<g>
</g>
<g>
</g>
<g>
</g>
<g>
</g>
<g>
</g>
<g>
</g>
<g>
</g>
<g>
</g>
<g>
</g>
<g>
</g>
<g>
</g>
</svg>
