<?xml version="1.0" encoding="iso-8859-1"?>
<!-- Uploaded to: SVG Repo, www.svgrepo.com, Generator: SVG Repo Mixer Tools -->
<svg version="1.1" id="Layer_1" xmlns="http://www.w3.org/2000/svg" xmlns:xlink="http://www.w3.org/1999/xlink" 
	 viewBox="0 0 512.001 512.001" xml:space="preserve">
<path style="fill:#FCCFEF;" d="M208.584,342.759c65.126-60.825,134.404-86.175,134.404-86.175l-87.572-87.572
	c0,0-25.35,69.278-86.175,134.404c9.185,2.334,17.883,7.086,25.07,14.273C201.5,324.877,206.25,333.574,208.584,342.759z"/>
<g>
	<path style="fill:#BA82AA;" d="M297.819,105.883l-20.906,20.906c-29.906,29.906-29.906,78.394,0,108.299l0,0
		c29.906,29.906,78.394,29.906,108.299,0l20.906-20.906L297.819,105.883z"/>
	<path style="fill:#BA82AA;" d="M239.63,17.091L239.63,17.091c-22.788,22.788-22.788,59.732,0,82.52l82.52-82.52
		C299.362-5.696,262.418-5.696,239.63,17.091z"/>
	<path style="fill:#BA82AA;" d="M139.244,332.374C71.27,391.285-1.054,413.526,0.012,463.541
		c0.562,26.327,22.121,47.887,48.448,48.448c50.016,1.066,72.257-71.258,131.167-139.231c9.389-10.834,19.127-20.815,28.958-29.997
		c-2.334-9.185-7.086-17.883-14.273-25.07c-7.188-7.188-15.886-11.939-25.07-14.273C160.06,313.248,150.077,322.984,139.244,332.374
		z"/>
</g>
<path style="opacity:0.1;enable-background:new    ;" d="M19.173,482.703c-1.066-50.016,71.258-72.257,139.233-131.168
	c10.834-9.389,20.815-19.127,29.997-28.958c60.825-65.126,86.175-134.404,86.175-134.404l0.011,0.011
	c2.422-15.46,9.573-30.322,21.486-42.235l20.906-20.906l-19.161-19.161l-20.906,20.906C265,138.7,257.85,153.562,255.427,169.022
	l-0.011-0.011c0,0-25.35,69.278-86.175,134.404c-9.182,9.831-19.163,19.569-29.997,28.958
	C71.27,391.285-1.054,413.526,0.012,463.541c0.384,18.018,10.607,33.8,25.461,42.149C21.624,498.842,19.351,491.011,19.173,482.703z
	"/>
<rect x="308.925" y="22.574" transform="matrix(-0.7071 0.7071 -0.7071 -0.7071 729.3193 -12.6249)" style="fill:#9090B3;" width="116.7" height="244.321"/>
<path style="fill:#BA82AA;" d="M494.909,272.37L494.909,272.37c22.788-22.788,22.788-59.732,0-82.52l-82.52,82.52
	C435.177,295.158,472.123,295.158,494.909,272.37z"/>
<rect x="245.113" y="116.434" transform="matrix(-0.7071 -0.7071 0.7071 -0.7071 524.6378 506.7679)" style="fill:#AFAFD9;" width="244.321" height="56.588"/>
<polygon style="fill:#9090B3;" points="287.14,52.103 287.139,52.102 274.641,64.599 447.401,237.359 447.401,237.36 
	459.898,224.863 "/>
<path style="opacity:0.1;enable-background:new    ;" d="M291.283,68.744c22.788-22.788,59.732-22.788,82.52,0L322.15,17.091
	c-22.788-22.788-59.732-22.788-82.52,0s-22.788,59.732,0,82.519l51.653,51.653C268.496,128.477,268.496,91.532,291.283,68.744z"/>
</svg>